<svg xmlns="http://www.w3.org/2000/svg" viewBox="0 0 511.988 511.988">
  <defs/>
  <path d="M156.413 302.829h-71.71c-11.649 0-21.092 9.443-21.092 21.092v159.481c0 11.649 9.443 21.092 21.092 21.092h71.71c11.649 0 21.092-9.443 21.092-21.092V323.921c-.001-11.649-9.444-21.092-21.092-21.092z" fill="#fadc60"/>
  <path d="M93.611 483.402V323.92c0-11.648 9.443-21.092 21.092-21.092h-30c-11.649 0-21.092 9.443-21.092 21.092v159.482c0 11.649 9.443 21.092 21.092 21.092h30c-11.649 0-21.092-9.443-21.092-21.092z" fill="#f2c42c"/>
  <path d="M311.057 229.686h-71.71c-11.649 0-21.092 9.443-21.092 21.092v232.624c0 11.649 9.443 21.092 21.092 21.092h71.71c11.649 0 21.092-9.443 21.092-21.092V250.778c0-11.649-9.443-21.092-21.092-21.092z" fill="#fd6f71"/>
  <path d="M248.255 483.402V250.778c0-11.649 9.443-21.092 21.092-21.092h-30c-11.649 0-21.092 9.443-21.092 21.092v232.624c0 11.649 9.443 21.092 21.092 21.092h30c-11.649 0-21.092-9.443-21.092-21.092z" fill="#e34b4c"/>
  <path d="M465.702 156.543h-71.71c-11.649 0-21.092 9.443-21.092 21.092v305.767c0 11.649 9.443 21.092 21.092 21.092h71.71c11.649 0 21.092-9.443 21.092-21.092V177.635c0-11.649-9.443-21.092-21.092-21.092z" fill="#57d0e6"/>
  <path d="M402.9 483.402V177.635c0-11.649 9.443-21.092 21.092-21.092h-30c-11.649 0-21.092 9.443-21.092 21.092v305.767c0 11.649 9.443 21.092 21.092 21.092h30c-11.649 0-21.092-9.443-21.092-21.092z" fill="#4db8cc"/>
  <path d="M485.66 7.586l-72.442 9.441 17.511 23.421-62.039 46.383-32.632-28.771a15.674 15.674 0 00-19.751-.796L177.562 160.999l-32.457-24.314a15.672 15.672 0 00-18.782-.009L14.519 220.268l18.77 25.106 102.41-76.568 32.457 24.314a15.672 15.672 0 0018.782.009L324.88 89.995l32.632 28.771a15.673 15.673 0 0019.751.796L449.5 65.553l17.527 23.442 29.536-66.833c3.29-7.447-2.829-15.628-10.903-14.576z" fill="#58b78c"/>
  <g>
    <path d="M63.664 442.319a7.5 7.5 0 00-7.5 7.5v33.576c0 15.766 12.826 28.592 28.592 28.592h71.71c15.766 0 28.592-12.826 28.592-28.592V323.914c0-15.766-12.826-28.592-28.592-28.592h-71.71c-15.766 0-28.592 12.826-28.592 28.592v95.905a7.5 7.5 0 0015 0v-95.905c0-7.495 6.097-13.592 13.592-13.592h71.71c7.495 0 13.592 6.097 13.592 13.592v159.481c0 7.495-6.097 13.592-13.592 13.592h-71.71c-7.495 0-13.592-6.097-13.592-13.592v-33.576a7.5 7.5 0 00-7.5-7.5zM239.401 222.18c-15.766 0-28.592 12.826-28.592 28.592v232.625c0 15.766 12.826 28.592 28.592 28.592h71.71c15.766 0 28.592-12.826 28.592-28.592V250.771c0-15.766-12.826-28.592-28.592-28.592h-71.71zm85.302 28.591v232.625c0 7.495-6.097 13.592-13.592 13.592h-71.71c-7.495 0-13.592-6.097-13.592-13.592V250.771c0-7.495 6.097-13.592 13.592-13.592h71.71c7.494.001 13.592 6.098 13.592 13.592zM486.848 248.319a7.5 7.5 0 007.5-7.5v-63.19c0-15.766-12.826-28.592-28.592-28.592h-71.71c-15.766 0-28.592 12.826-28.592 28.592v305.767c0 15.766 12.826 28.592 28.592 28.592h71.71c15.766 0 28.592-12.826 28.592-28.592V270.819a7.5 7.5 0 00-15 0v212.576c0 7.495-6.097 13.592-13.592 13.592h-71.71c-7.495 0-13.592-6.097-13.592-13.592V177.629c0-7.495 6.097-13.592 13.592-13.592h71.71c7.495 0 13.592 6.097 13.592 13.592v63.19a7.5 7.5 0 007.5 7.5zM341.072 52.428c-8.137-7.174-20.523-7.663-29.202-1.178L177.62 151.625l-27.964-20.949c-8.139-6.097-19.633-6.097-27.77-.014L10.082 214.254a7.5 7.5 0 00-1.516 10.498l18.77 25.106c2.445 3.27 7.233 3.956 10.498 1.516l97.914-73.208 27.964 20.948c8.146 6.102 19.625 6.103 27.771.014l133.061-99.485 28.061 24.741c8.138 7.175 20.522 7.667 29.202 1.178l66.23-49.518 13.036 17.436c3.382 4.524 10.593 3.685 12.867-1.459l29.535-66.833c5.451-12.335-5.394-26.781-18.73-25.046l-72.442 9.441c-5.595.729-8.419 7.405-5.038 11.928l13.02 17.414-51.152 38.244-28.061-24.741zm94.201-5.98c3.273-2.447 3.963-7.224 1.516-10.498l-9.832-13.15 59.726-7.784c2.247-.293 3.981 2.053 3.072 4.108l-24.351 55.1-9.845-13.168c-2.448-3.274-7.225-3.963-10.498-1.516l-72.237 54.009c-3.06 2.288-7.441 2.106-10.301-.415l-32.631-28.771a7.501 7.501 0 00-9.451-.381L182.5 187.116c-2.878 2.152-6.924 2.146-9.795-.005l-32.457-24.314a7.499 7.499 0 00-8.988-.004L34.859 234.87l-9.789-13.093 105.797-79.1c2.879-2.153 6.918-2.151 9.795.005l32.457 24.314a7.5 7.5 0 008.988.004L320.85 63.265c3.066-2.293 7.427-2.121 10.302.414l32.632 28.771a7.499 7.499 0 009.451.381l62.038-46.383z"/>
  </g>
</svg>
