<svg fill="none" xmlns="http://www.w3.org/2000/svg" viewBox="0 0 192 192">
  <defs/>
  <path d="M0 0h192v192H0z"/>
  <g clip-path="url(#clip0)" fill-rule="evenodd" clip-rule="evenodd">
    <path d="M94.009 33.696c-1.864.711-3.92 2.136-3.92 2.718 0 .146-.148.36-.33.474-.364.23-1.01 2.424-.81 2.75.07.111.699.202 1.399.202 1.642 0 2.093.443 2.093 2.057 0 1.428-.324 1.862-1.39 1.862-.732 0-3.837.52-6.578 1.102-1.397.296-4.104 1.104-4.964 1.481-.288.125-1.052.434-1.7.685-7.356 2.857-15.983 9.275-19.986 14.871-.287.401-.641.864-.787 1.028-.671.754-1.956 2.48-1.956 2.627 0 .091-.424.78-.943 1.53-.518.751-1.047 1.601-1.175 1.888-.128.288-.35.73-.494.98l-.525.915c-.144.251-.33.633-.412.85-.082.214-.317.703-.521 1.084-.204.381-.371.868-.371 1.081 0 .212-.176.723-.391 1.135-.214.412-.391 1.006-.392 1.321-.001.315-.103.635-.228.712-.125.077-.305.726-.4 1.442-.094.716-.286 1.372-.426 1.458-.14.086-.254.591-.255 1.121-.001.531-.177 1.301-.392 1.713-.228.436-.39 1.445-.39 2.42v1.671l9.99-.068 9.99-.068.332-.693c.182-.38.445-1.294.585-2.028.139-.734.556-2.01.926-2.835 1.173-2.612 2.566-5.287 2.755-5.287.099 0 .255-.206.346-.457.556-1.538 3.525-4.737 6.297-6.786 1.792-1.325 2.852-1.915 6.27-3.495.595-.275 2.607-.845 5.095-1.444 4.3-1.035 11.795-.397 15.807 1.345 5.33 2.316 6.465 3.076 9.945 6.657 2.548 2.621 3.177 3.375 3.534 4.237.165.4.377.727.471.727.221 0 .896 1.361 2.234 4.503.544 1.277 1.19 3.578 1.19 4.24 0 1.433.098 1.446 10.929 1.446h9.972v-1.123c0-.618-.111-1.235-.247-1.372-.136-.136-.363-.895-.503-1.685-.28-1.58-.752-3.5-1.06-4.31a55.826 55.826 0 01-.657-1.96c-.511-1.598-.963-2.693-1.835-4.442-1.287-2.584-1.846-3.592-2.8-5.048-.548-.836-.997-1.573-.997-1.637 0-.12-2.126-3.135-2.603-3.689-.149-.174-.271-.372-.271-.44 0-.375-6.019-6.29-7.04-6.919-.666-.41-1.382-.908-1.592-1.108-.998-.949-5.68-3.795-8.35-5.075-4.013-1.924-12.642-4.3-15.613-4.3-.998 0-1.401-.497-1.562-1.925-.153-1.356.488-1.992 2.014-1.999 1.872-.008 1.984-.728.49-3.156-1.524-2.476-5.32-3.929-7.798-2.984zM62.722 91.751c.252.066.663.066.915 0 .25-.066.045-.119-.458-.119s-.708.053-.457.12zm63.945.012c-2.637.088-3.162.34-3.111 1.491.015.36.105.256.268-.31l.246-.85 2.278-.016c1.253-.008 2.749-.112 3.324-.23.821-.17.877-.212.261-.193l-3.266.108zm-79.773.243a.72.72 0 00-.17.458c.002.17.085.155.208-.04.153-.24 2.12-.34 7.769-.396l7.564-.073-7.6-.062c-4.178-.033-7.675.018-7.771.113zm18.898.01c1.21.068 1.799.225 2.048.544.324.414.343.408.259-.075-.082-.465-.305-.524-2.048-.543-1.86-.02-1.873-.017-.26.074zm67.407 0c6.183.185 12.019.191 12.019.012-.001-.108-3.263-.17-7.251-.14-3.987.03-6.133.087-4.768.128zm-64.981 2.821c.002.718.053.981.113.584.06-.397.058-.985-.004-1.306-.062-.322-.111.003-.11.722zm55.113-.13c0 .502.054.708.12.456a2.134 2.134 0 000-.914c-.066-.252-.12-.046-.12.457zm-76.54 1.306c0 .646.05.911.113.587a3.735 3.735 0 000-1.175c-.062-.324-.113-.059-.113.588zm98.226-.262c0 .503.053.71.119.457a2.134 2.134 0 000-.914c-.066-.25-.119-.046-.119.457zm-97.714 4.442c0 .503.053.708.119.457a2.134 2.134 0 000-.914c-.066-.252-.12-.046-.12.457zm73.094 4.441c-.293.575-.474 1.045-.403 1.045.072 0 .371-.47.664-1.045.293-.574.475-1.045.403-1.045-.072 0-.371.471-.664 1.045zm-1.918 3.201c-.824 1.148-.852 1.222-.168.457.768-.861 1.423-1.829 1.236-1.829-.046 0-.527.617-1.068 1.372zm-45.633-.245c0 .045.382.427.849.849l.85.768-.768-.85c-.715-.791-.931-.969-.931-.767zm42.971 3.38l-1.56 1.633 1.633-1.559c1.517-1.449 1.753-1.707 1.559-1.707-.04 0-.775.735-1.632 1.633zm-40.285-.327c.663.891 1.756 1.949 1.756 1.701 0-.068-.548-.684-1.22-1.369-.93-.952-1.056-1.03-.536-.332zm2.278 2.201c.505.648 3.367 2.764 3.738 2.764.156 0-.243-.334-.887-.743a22.739 22.739 0 01-2.206-1.633c-.57-.49-.86-.664-.645-.388zm61.283 2.733c-1.153 2.275-4.227 6.649-6.407 9.117-1.171 1.325-2.071 2.409-1.999 2.409.367 0 4.62-5.165 6.205-7.534 1.751-2.619 3.249-5.268 2.978-5.268-.072 0-.421.574-.777 1.276zm-86.364.384c0 .25 1.283 2.259 1.443 2.259.072 0-.18-.499-.561-1.11-.8-1.285-.882-1.392-.882-1.149zm31.09.822c.647.347 1.294.63 1.437.63.144 0-.267-.283-.914-.63-.647-.346-1.293-.629-1.437-.629-.144 0 .268.283.914.629zm21.294.923c-1.006.408-1.714.75-1.573.759.325.021 3.794-1.299 3.794-1.443 0-.185-.335-.082-2.221.684zm-15.842 1.153c.483.223 1.189.393 1.567.376.593-.026.56-.059-.226-.238a78.336 78.336 0 01-1.567-.376c-.423-.109-.343-.025.226.238zm13.014-.206c-.094.094-.613.257-1.154.362-.893.173-.911.192-.199.208.802.019 2.687-.682 1.938-.72-.227-.012-.491.056-.585.15zm-8.207.964c.867.133 2.25.134 3.265.002 1.639-.213 1.535-.229-1.505-.231-2.85-.002-3.074.028-1.76.229zm-37.501 2.261c.857 1.275 5.235 6.27 5.496 6.27.159 0-.057-.251-2.42-2.811a41.513 41.513 0 01-2.29-2.743c-1.34-1.797-1.785-2.202-.786-.716zm72.523 6.689l-1.257 1.202 1.372-1.112c.754-.612 1.371-1.153 1.371-1.203 0-.24-.329.007-1.486 1.113zm-66.704-.345c0 .072 1.058 1.097 2.35 2.278 1.294 1.18 2.352 2.088 2.352 2.016 0-.072-1.058-1.097-2.351-2.277-1.293-1.181-2.351-2.088-2.351-2.017zm62.965 3.715c-.635.646-1.095 1.175-1.023 1.175.072 0 .65-.529 1.284-1.175.635-.647 1.095-1.176 1.023-1.176-.071 0-.649.529-1.284 1.176zm-3.005 2.686c-.862.826-2.802 2.662-4.311 4.08-1.508 1.419-1.92 1.864-.914.99 2.266-1.969 7.101-6.552 6.924-6.563-.072-.004-.836.668-1.699 1.493zm-53.69-.645c0 .045.382.427.849.849l.849.767-.767-.849c-.715-.791-.931-.969-.931-.767zm5.465 5.052c1.664 1.602 3.068 2.873 3.119 2.825.09-.086-2.176-2.234-4.813-4.562-.733-.647.029.135 1.694 1.737zm37.644 5.347l-3.266 3.154 3.331-3.068c2.97-2.734 3.504-3.265 3.266-3.246-.036.003-1.535 1.425-3.331 3.16zm-33.168-1.306c.654.63 2.71 2.54 4.572 4.244 3.226 2.954 3.262 2.978.76.522-1.442-1.417-3.5-3.326-4.571-4.244-1.072-.917-1.415-1.152-.761-.522zm25.722 7.988c-2.211 2.01-4.33 4.068-4.257 4.133.042.037 1.311-1.094 2.82-2.514 1.509-1.421 2.685-2.58 2.613-2.576-.072.004-.601.435-1.176.957zm-15.78 1.191c.064.036.819.712 1.678 1.503l1.56 1.437-1.427-1.503c-.785-.826-1.54-1.502-1.676-1.502-.137 0-.197.029-.134.065zm3.658 3.227c.03.279 2.559 2.584 2.666 2.431.04-.058-.55-.682-1.31-1.386-.761-.704-1.371-1.175-1.356-1.045zm6.619.692l-.767.849.849-.767c.79-.715.969-.931.767-.931-.045 0-.427.382-.85.849zm-1.646 1.264c-.34.275-.515.496-.391.492.318-.012 1.254-.748 1.12-.881-.062-.061-.39.114-.73.389z" fill="#1890FF"/>
    <path d="M54.7 92.272c-8.717.088-8.067-.156-7.838 2.942 1.049 14.215 6.674 25.316 17.885 35.303 1.509 1.344 3.05 2.739 3.426 3.1a95.718 95.718 0 001.829 1.685c.63.565 2.439 2.209 4.02 3.654a894.444 894.444 0 003.919 3.566c.575.517 1.75 1.574 2.613 2.348.862.775 2.625 2.414 3.919 3.642 1.293 1.229 2.895 2.701 3.559 3.273.664.571 2.512 2.244 4.107 3.717 4.028 3.72 3.623 3.807 9.969-2.141.934-.876 2.461-2.236 3.392-3.024.932-.788 2.872-2.551 4.311-3.918a318.288 318.288 0 015.229-4.833 849.87 849.87 0 005.882-5.353c3.964-3.641 8.198-7.505 8.847-8.074 4.787-4.194 10.399-13.176 12.666-20.273 1.698-5.315 3.217-13.774 2.711-15.094-.159-.414-11.343-.718-18.408-.5l-2.673.083-.252.962c-.139.53-.328 1.727-.419 2.66-.092.935-.32 2.229-.508 2.875-.188.647-.547 1.867-.797 2.712-1.163 3.922-4.254 8.194-8.627 11.925-5.065 4.319-14.463 7.303-19.828 6.295-.852-.161-1.97-.293-2.482-.295-2.044-.006-9.517-3.252-11.967-5.198-2.212-1.755-5.56-5.341-6.672-7.145-2.261-3.665-4.048-8.62-4.29-11.89-.242-3.298.439-3.147-13.522-3.004z" fill="#fff"/>
    <path d="M92.819 33.939c-2.495 1.244-4.297 3.662-4.297 5.765v.88l1.633.078 1.633.078.079 1.358c.078 1.356.077 1.357-.784 1.48l-3.991.578c-16.19 2.346-32.36 16.027-37.342 31.594-1.111 3.47-2.09 7.43-1.886 7.632.234.234.684-1.18.684-2.147 0-.485.115-.953.254-1.04.14-.085.332-.741.426-1.457.095-.716.275-1.365.4-1.442.125-.077.227-.397.228-.712 0-.315.178-.91.392-1.321.215-.412.39-.923.39-1.135 0-.344.404-1.246 1.084-2.428.125-.215.293-.568.374-.783.08-.216.257-.57.39-.784.135-.216.348-.627.476-.915.128-.287.657-1.137 1.175-1.888.519-.75.943-1.44.943-1.53 0-.148 1.285-1.873 1.956-2.627.146-.164.5-.627.787-1.028 4.003-5.596 12.63-12.014 19.987-14.871.647-.251 1.41-.56 1.699-.685.86-.377 3.567-1.185 4.964-1.481 2.74-.582 5.846-1.102 6.579-1.102 1.065 0 1.389-.434 1.389-1.862 0-1.614-.451-2.057-2.093-2.057-.7 0-1.33-.091-1.398-.203-.2-.325.445-2.52.809-2.75.182-.114.33-.327.33-.473 0-1.045 4.508-3.316 5.984-3.015 2.238.456 2.877.669 3.846 1.283 1.087.687 2.551 2.729 2.871 4.003.21.837-.185 1.145-1.473 1.15-1.526.008-2.167.644-2.014 2 .16 1.428.564 1.924 1.562 1.924 2.971 0 11.6 2.377 15.613 4.3 2.67 1.28 7.352 4.127 8.35 5.076.21.2.926.698 1.592 1.108 1.021.628 7.04 6.544 7.04 6.919 0 .068.122.266.271.44.477.554 2.603 3.568 2.603 3.689 0 .064.449.8.997 1.637 1.831 2.795 3.751 6.725 4.635 9.489.252.79.548 1.673.657 1.96.308.81.78 2.73 1.06 4.31.14.79.367 1.55.503 1.686.136.137.247.754.247 1.372v1.123h-10.018c-10.915 0-10.883.005-10.883-1.493 0-.621-.661-2.951-1.19-4.193-1.338-3.142-2.013-4.503-2.234-4.503-.094 0-.306-.327-.471-.727-.357-.862-.986-1.616-3.534-4.237-3.48-3.581-4.615-4.341-9.945-6.657-4.012-1.742-11.506-2.38-15.807-1.345-2.488.599-4.5 1.169-5.095 1.444-3.418 1.58-4.478 2.17-6.27 3.495-2.772 2.049-5.741 5.248-6.297 6.786-.091.25-.247.457-.346.457-.19 0-1.582 2.675-2.755 5.287-.37.825-.787 2.1-.926 2.835-.14.734-.403 1.647-.585 2.028l-.332.693-9.99.068-9.99.068-.034-1.766-.033-1.767-.25 1.8c-.33 2.396-1.05 2.24 10.409 2.246 11.399.004 10.335.266 11.084-2.73 1.988-7.956 7.793-15.092 14.796-18.188.979-.433 2.016-.901 2.303-1.04.288-.14 1.169-.427 1.96-.641 15.637-4.234 31.187 4.64 35.023 19.988.73 2.919-.512 2.646 11.613 2.557l9.928-.073.084-1.031c.138-1.682-1.606-8.597-3.099-12.294-1.806-4.47-6.376-11.722-9.372-14.874-2.516-2.647-4.246-4.313-4.987-4.802-.359-.237-1.721-1.213-3.026-2.17-5.68-4.161-12.88-7.198-19.443-8.2-4.707-.718-4.541-.657-4.811-1.75-.328-1.326.087-1.775 1.642-1.78 1.692-.006 1.957-.233 1.744-1.495-.741-4.383-6.43-7.192-10.477-5.172zM50.85 92.013c2.2.044 5.727.044 7.838 0 2.11-.044.31-.08-4.001-.08s-6.038.037-3.837.08zm13.825-.006a9.872 9.872 0 001.829.002c.542-.057.162-.104-.844-.105-1.005-.001-1.45.045-.985.103zm60.75.003c.683.054 1.8.054 2.482 0 .683-.054.124-.098-1.241-.098-1.365 0-1.923.044-1.241.098zm8.622.003c1.976.045 5.209.045 7.185 0 1.976-.044.359-.08-3.592-.08-3.952 0-5.569.036-3.593.08zm11.25 2.026c.002.862.05 1.183.109.714.058-.47.057-1.175-.003-1.568-.06-.393-.107-.008-.106.854zm-98.78.653c0 .503.055.709.12.457a2.134 2.134 0 000-.914c-.065-.252-.12-.046-.12.457zm16.4 34.618c.488.503.945.914 1.017.914.072 0-.268-.411-.756-.914-.487-.503-.945-.915-1.017-.915-.071 0 .269.412.756.915z" fill="#73BCEC"/>
  </g>
  <defs>
    <clipPath id="clip0">
      <path fill="#fff" d="M46 33h100v126H46z"/>
    </clipPath>
  </defs>
</svg>
