<svg xmlns="http://www.w3.org/2000/svg" viewBox="0 0 512 512">
  <defs/>
  <path d="M257.103 8.159c33.436 0 80.523 40.521 80.523 90.516 0 49.984-47.087 90.506-80.523 90.506-49.984 0-90.516-40.521-90.516-90.506 0-49.995 40.532-90.516 90.516-90.516z" fill="#fcd5a2"/>
  <path d="M259.282 8.159c49.984 0 88.337 40.521 88.337 90.516 0 49.984-38.353 90.506-88.337 90.506 33.436 0 60.537-40.521 60.537-90.506.001-49.995-27.1-90.516-60.537-90.516z" fill="#febb8e"/>
  <path d="M257.269 238.2c-.418-.011-.848-.011-1.266-.011-.418 0-.848 0-1.266.011-53.587 1.013-108.439 66.211-108.439 146.486v38.182l109.705 64.512 109.705-64.512v-38.182c0-80.275-54.853-145.473-108.439-146.486z" fill="#a0613c"/>
  <path d="M402.49 384.686l-54.457 38.182v-38.182c0-80.275-40.568-145.473-90.842-146.486 80.361.632 145.299 65.972 145.299 146.486z" fill="#804e30"/>
  <path d="M109.517 384.686l54.457 38.182v-38.182c0-80.275 40.568-145.473 90.842-146.486-80.362.632-145.299 65.972-145.299 146.486z" fill="#bf7447"/>
  <path d="M376.651 376.647c-52.191 0-120.647 61.498-94.502 127.183h189.004c26.144-65.685-42.312-127.183-94.502-127.183z" fill="#ffcc3d"/>
  <path d="M503.834 503.83h-32.681c0-70.242-42.311-127.183-94.502-127.183 70.242 0 127.183 56.941 127.183 127.183z" fill="#ffbb02"/>
  <path d="M250.183 490.253l12.351 13.577h19.614c0-70.242 42.311-127.183 94.502-127.183-65.655 0-119.691 49.748-126.467 113.606z" fill="#fd7"/>
  <path d="M376.651 216.097c24.934 0 54.977 29.018 54.977 64.817 0 35.808-30.042 64.827-54.977 64.827-35.799 0-64.817-29.018-64.817-64.827 0-35.798 29.018-64.817 64.817-64.817z" fill="#bf7447"/>
  <path d="M376.651 216.097c35.799 0 64.817 29.018 64.817 64.817 0 35.808-29.018 64.827-64.817 64.827 24.934 0 45.137-29.018 45.137-64.827-.001-35.798-20.203-64.817-45.137-64.817z" fill="#a0613c"/>
  <path d="M135.35 376.647c-52.191 0-120.647 61.498-94.502 127.183h189.004c26.145-65.685-42.31-127.183-94.502-127.183z" fill="#ff7a2f"/>
  <path d="M262.533 503.83h-32.681c0-70.242-42.311-127.183-94.502-127.183 70.243 0 127.183 56.941 127.183 127.183z" fill="#f06b22"/>
  <path d="M8.167 503.83h32.681c0-70.242 42.311-127.183 94.502-127.183-70.24 0-127.183 56.941-127.183 127.183z" fill="#ff9b5f"/>
  <path d="M136.44 215.007c24.934 0 54.977 29.018 54.977 64.817 0 35.808-30.042 64.827-54.977 64.827-35.799 0-64.817-29.018-64.817-64.827 0-35.797 29.019-64.817 64.817-64.817z" fill="#feab75"/>
  <path d="M135.35 215.007c35.799 0 64.817 29.018 64.817 64.817 0 35.808-29.018 64.827-64.817 64.827 24.934 0 45.137-29.018 45.137-64.827.001-35.797-20.201-64.817-45.137-64.817z" fill="#ff9b5f"/>
  <g fill="#1d2328">
    <path d="M256.001 197.341c-54.406 0-98.67-44.263-98.67-98.67S201.595 0 256.001 0s98.67 44.263 98.67 98.67-44.264 98.671-98.67 98.671zm0-181.001c-45.397 0-82.33 36.933-82.33 82.33S210.604 181 256.001 181s82.33-36.933 82.33-82.33-36.933-82.33-82.33-82.33zM221.991 247.04a8.17 8.17 0 01-1.516-16.198c23.197-4.409 47.649-4.422 70.85-.038a8.17 8.17 0 11-3.034 16.056c-21.199-4.006-43.568-3.995-64.765.035a8.21 8.21 0 01-1.535.145z"/>
    <path d="M256.001 150.624c-17.397 0-33.62-8.632-43.398-23.092a8.17 8.17 0 012.192-11.345 8.17 8.17 0 0111.345 2.192c6.734 9.959 17.898 15.905 29.862 15.905 11.964 0 23.127-5.946 29.862-15.904a8.17 8.17 0 0113.537 9.153c-9.781 14.459-26.003 23.091-43.4 23.091zM376.647 352.136c-39.569 0-71.762-32.192-71.762-71.762s32.193-71.762 71.762-71.762 71.762 32.192 71.762 71.762-32.193 71.762-71.762 71.762zm0-127.183c-30.56 0-55.421 24.861-55.421 55.421s24.861 55.421 55.421 55.421 55.421-24.861 55.421-55.421-24.861-55.421-55.421-55.421z"/>
    <path d="M376.647 319.31c-13.032 0-25.184-6.465-32.507-17.295a8.17 8.17 0 0113.537-9.153c4.28 6.329 11.372 10.107 18.97 10.107s14.691-3.778 18.97-10.107a8.17 8.17 0 0111.345-2.192 8.17 8.17 0 012.192 11.345c-7.323 10.83-19.475 17.295-32.507 17.295zM135.354 352.136c-39.569 0-71.762-32.192-71.762-71.762s32.193-71.762 71.762-71.762 71.762 32.192 71.762 71.762-32.193 71.762-71.762 71.762zm0-127.183c-30.56 0-55.421 24.861-55.421 55.421s24.861 55.421 55.421 55.421 55.421-24.861 55.421-55.421-24.861-55.421-55.421-55.421z"/>
    <path d="M135.354 319.31c-13.032 0-25.184-6.465-32.507-17.295a8.17 8.17 0 0113.537-9.153c4.28 6.329 11.371 10.107 18.97 10.107s14.691-3.778 18.97-10.107a8.17 8.17 0 0111.345-2.192 8.17 8.17 0 012.192 11.345c-7.323 10.83-19.475 17.295-32.507 17.295zM262.537 512a8.17 8.17 0 01-8.17-8.17c0-65.624-53.39-119.013-119.013-119.013S16.341 438.206 16.341 503.83c0 4.512-3.657 8.17-8.17 8.17s-8.17-3.658-8.17-8.17c0-74.634 60.719-135.353 135.353-135.353s135.353 60.719 135.353 135.353a8.17 8.17 0 01-8.17 8.17zM503.83 512a8.17 8.17 0 01-8.17-8.17c0-65.624-53.39-119.013-119.013-119.013-37.471 0-72.001 17.119-94.739 46.968a8.17 8.17 0 01-12.998-9.902c25.854-33.94 65.122-53.406 107.736-53.406 74.634 0 135.353 60.719 135.353 135.353a8.167 8.167 0 01-8.169 8.17z"/>
  </g>
</svg>
