<svg viewBox="0 0 496 496" xmlns="http://www.w3.org/2000/svg">
  <defs/>
  <path d="M480 248l-40 56-40-56h24V96h32v152zm0 0" fill="#b4dd7f"/>
  <path d="M384 488H280l-16-96 16.398-32.879L304 376l7.602-75.922 88.718 23.363C428.398 330.88 448 356.238 448 385.36V488zm0 0M112 488H48V385.36c0-29.122 19.602-54.481 47.68-61.919l88.718-23.363L192 376l23.602-16.879L232 392l-16 96zm0 0" fill="#ffeaa7"/>
  <path d="M264 392l16 96h-64l16-96zm0 0M280.398 359.121L264 392h-32l-16.398-32.879L248 336zm0 0" fill="#ff826e"/>
  <path d="M311.602 300.078L304 376l-23.602-16.879L248 336l48-40zm0 0M248 336l-32.398 23.121L192 376l-7.602-75.922L200 296zm0 0" fill="#fcd770"/>
  <path d="M248 216.32v-15.039c0-10.8 5.36-20.883 14.398-26.883 6-4 9.602-10.718 9.602-18 0-2.878-.559-5.757-1.762-8.476l-19.597-45.844c-1.762-4-2.641-8.316-2.641-12.719V8h128v103.04c0 63.28-30.719 122.16-81.68 158.48-5.199 3.761-10.718 7.28-16.398 10.558A60.394 60.394 0 01248 288zm0 0" fill="#aab2bd"/>
  <path d="M296 272v24l-48 40-48-40v-24l1.68-2.48c5.199 3.761 10.718 7.28 16.398 10.558C227.2 285.281 237.52 288 248 288s20.8-2.719 29.922-7.922c5.68-3.277 11.2-6.797 16.398-10.558zm0 0" fill="#f0d0b4"/>
  <path d="M248 216.32V288c-10.48 0-20.8-2.719-29.922-7.922-5.68-3.277-11.2-6.797-16.398-10.558-22.88-16.239-41.68-37.04-55.36-60.801a194.39 194.39 0 01-26.32-97.68V8h128v81.36c0 4.402.879 8.718 2.64 12.718l19.598 45.844c1.203 2.719 1.762 5.598 1.762 8.476 0 7.282-3.602 14-9.602 18-9.039 6-14.398 16.082-14.398 26.883zm0 0" fill="#e6e9ed"/>
  <path d="M402.328 315.703L304 289.832v-17.504c49.895-38.008 80-97.687 80-161.32V0H112v111c0 63.633 30.105 123.313 80 161.32v17.504l-98.328 25.871C62.07 324.023 40 352.656 40 385.335V496h416V385.336c0-32.68-22.07-61.313-53.672-69.633zm-204.281-10.918l36.875 30.727-36.328 25.953-5.54-55.36zM238.777 400h18.446l13.336 80H225.44zm20.278-16h-22.11l-11.152-22.305L248 345.832l22.207 15.863zm2.023-48.488l36.875-30.727 4.992 1.313-5.539 55.359zM368 111c0 66.832-36.047 128.953-94.078 162.113-5.54 3.168-11.649 5.153-17.922 6.094v-53.656c26.61 5.418 32.008 23.554 32.238 24.386l15.516-3.882c-.348-1.383-8.195-30.414-47.762-36.774v-8c0-8.144 4.04-15.695 10.817-20.21A29.538 29.538 0 00280 156.433a29.38 29.38 0 00-2.398-11.664l-19.633-45.825A24.23 24.23 0 01256 89.367V16h112zm-240 0V16h112v73.367c0 5.48 1.098 10.817 3.258 15.871l19.637 45.832a13.442 13.442 0 011.105 5.364c0 4.558-2.266 8.789-6.062 11.328A40.2 40.2 0 00240 201.282V208c-40.664 0-47.969-24.96-48.258-26.023l-15.504 3.968C176.625 187.496 186.368 224 240 224v55.215c-6.273-.942-12.383-2.926-17.922-6.094C164.047 239.961 128 177.84 128 111zm86.145 176.008c10.289 5.879 22 8.992 33.855 8.992s23.566-3.113 33.855-8.992c2.098-1.2 4.098-2.52 6.145-3.785v9.035l-40 33.336-40-33.336v-9.035c2.04 1.265 4.04 2.586 6.145 3.785zM56 385.336c0-25.414 17.168-47.688 41.754-54.152l79.629-20.961 8.031 80.312 27.195-19.422 11.07 22.145L209.224 480H120V368h-16v112H56zM440 480h-48V368h-16v112h-89.223l-14.457-86.742 11.07-22.145 27.196 19.422 8.031-80.312 79.63 20.96C422.831 337.649 440 359.923 440 385.337zm0 0"/>
  <path d="M208 104h16c0-22.055-17.945-40-40-40s-40 17.945-40 40h16c0-13.23 10.77-24 24-24s24 10.77 24 24zm0 0M312 112c22.055 0 40-17.945 40-40h-16c0 13.23-10.77 24-24 24s-24-10.77-24-24h-16c0 22.055 17.945 40 40 40zm0 0M6.063 62.633l11.312 11.312L32 59.313V80h16V59.312l14.625 14.633 11.313-11.312L59.312 48H80V32H59.312l14.626-14.633L62.624 6.055 48 20.687V0H32v20.688L17.375 6.055 6.062 17.367 20.688 32H0v16h20.688zM24 46.625v-13.25L33.375 24h13.25L56 33.375v13.25L46.625 56h-13.25zm0 0M64 160h16v16H64zm0 0M48 176h16v16H48zm0 0M64 192h16v16H64zm0 0M80 176h16v16H80zm0 0M16 272h16v16H16zm0 0M0 288h16v16H0zm0 0M16 304h16v16H16zm0 0M32 288h16v16H32zm0 0M448 96h16v16h-16zm0 0M448 128h16v16h-16zm0 0"/>
  <path d="M495.543 240H464v-80h-16v96h16.457L440 290.23 415.543 256H432V96h-16v144h-31.543L440 317.77zm0 0"/>
</svg>
